<svg xmlns="http://www.w3.org/2000/svg" viewBox="0 0 32 32" width="32" height="32">
  <defs>
    <linearGradient id="bg" x1="0%" y1="0%" x2="100%" y2="100%">
      <stop offset="0%" style="stop-color:#165DFF"/>
      <stop offset="100%" style="stop-color:#0D47A1"/>
    </linearGradient>
  </defs>
  
  <circle cx="16" cy="16" r="15" fill="url(#bg)"/>
  
  <g transform="translate(16, 13)">
    <circle cx="0" cy="2" r="3.5" fill="#FFE0B2"/>
    <path d="M-3 0 L0 -2 L3 0 L2 1.5 L0 -0.5 L-2 1.5 Z" fill="white"/>
    <circle cx="0" cy="-3" r="0.6" fill="white"/>
    <line x1="0" y1="-2.4" x2="0" y2="-3.5" stroke="white" stroke-width="0.3"/>
    <circle cx="0" cy="-3.5" r="0.3" fill="#FFD700"/>
  </g>
  
  <g transform="translate(22, 8)">
    <circle cx="0" cy="0" r="4.5" fill="white" fill-opacity="0.9" stroke="#165DFF" stroke-width="0.5"/>
    <line x1="3" y1="3" x2="6" y2="6" stroke="#165DFF" stroke-width="1.2" stroke-linecap="round"/>
    <rect x="-2" y="-1.5" width="1" height="3" fill="#4CAF50" rx="0.2"/>
    <rect x="-0.5" y="-0.5" width="1" height="2" fill="#2196F3" rx="0.2"/>
    <rect x="1" y="-1" width="1" height="2.5" fill="#FF9800" rx="0.2"/>
  </g>
</svg>
